<svg width="512" height="512" viewBox="0 0 512 512" fill="none" xmlns="http://www.w3.org/2000/svg">
<path d="M416 32H335.999C335.992 32 335.986 32.001 335.979 32.001C328.674 22.292 317.059 16 304 16H283.61C277.966 6.242 267.481 0 256 0C244.519 0 234.034 6.242 228.39 16H208C194.941 16 183.326 22.292 176.021 32.001C176.014 32.001 176.007 32 176 32H96C73.944 32 56 49.944 56 72V472C56 494.056 73.944 512 96 512H416C438.056 512 456 494.056 456 472V72C456 49.944 438.056 32 416 32ZM184 56C184 42.767 194.767 32 208 32H233.47C236.855 32 239.874 29.869 241.008 26.68C243.278 20.292 249.303 16 256 16C262.697 16 268.722 20.292 270.992 26.68C272.126 29.869 275.145 32 278.53 32H304C317.233 32 328 42.767 328 56V80H184V56ZM440 472C440 485.233 429.233 496 416 496H96C82.767 496 72 485.233 72 472V72C72 58.767 82.767 48 96 48H168.805C168.278 50.586 168 53.261 168 56V88C168 92.418 171.582 96 176 96H336C340.418 96 344 92.418 344 88V56C344 53.261 343.722 50.586 343.195 48H416C429.233 48 440 58.767 440 72V472Z" fill="#FFDFBE" fill-opacity="0.23"/>
<path d="M416 64H368C363.582 64 360 67.582 360 72C360 76.418 363.582 80 368 80H408V464H104V80H144C148.418 80 152 76.418 152 72C152 67.582 148.418 64 144 64H96C91.582 64 88 67.582 88 72V472C88 476.418 91.582 480 96 480H416C420.418 480 424 476.418 424 472V72C424 67.582 420.418 64 416 64Z" fill="#FFDFBE" fill-opacity="0.23"/>
<path d="M256 32C253.89 32 251.83 32.85 250.34 34.34C248.85 35.83 248 37.89 248 40C248 42.1 248.85 44.17 250.34 45.66C251.83 47.15 253.89 48 256 48C258.1 48 260.17 47.15 261.66 45.66C263.15 44.17 264 42.11 264 40C264 37.89 263.15 35.83 261.66 34.34C260.17 32.849 258.1 32 256 32Z" fill="#FFDFBE" fill-opacity="0.23"/>
<path d="M130.343 186.343C127.218 189.467 127.218 194.532 130.343 197.656L154.343 221.656C155.905 223.218 157.952 223.999 160 223.999C162.048 223.999 164.095 223.218 165.657 221.656L205.657 181.656C208.782 178.532 208.782 173.467 205.657 170.343C202.533 167.219 197.468 167.219 194.344 170.343L160 204.686L141.657 186.343C138.533 183.219 133.467 183.219 130.343 186.343Z" fill="#FFDFBE" fill-opacity="0.23"/>
<path d="M205.657 258.343C202.533 255.219 197.468 255.219 194.344 258.343L160 292.686L141.657 274.343C138.533 271.219 133.468 271.219 130.344 274.343C127.219 277.467 127.219 282.532 130.344 285.656L154.344 309.656C155.906 311.218 157.953 311.999 160.001 311.999C162.049 311.999 164.096 311.218 165.658 309.656L205.658 269.656C208.781 266.533 208.781 261.467 205.657 258.343Z" fill="#FFDFBE" fill-opacity="0.23"/>
<path d="M194.343 346.343L160 380.686L141.657 362.343C138.533 359.219 133.468 359.219 130.344 362.343C127.219 365.467 127.219 370.532 130.344 373.656L154.344 397.656C155.906 399.218 157.953 399.999 160.001 399.999C162.049 399.999 164.096 399.218 165.658 397.656L205.658 357.656C208.783 354.532 208.783 349.467 205.658 346.343C202.533 343.219 197.467 343.219 194.343 346.343Z" fill="#FFDFBE" fill-opacity="0.23"/>
<path d="M240 200H376C380.418 200 384 196.418 384 192C384 187.582 380.418 184 376 184H240C235.582 184 232 187.582 232 192C232 196.418 235.582 200 240 200Z" fill="#FFDFBE" fill-opacity="0.23"/>
<path d="M240 288H376C380.418 288 384 284.418 384 280C384 275.582 380.418 272 376 272H240C235.582 272 232 275.582 232 280C232 284.418 235.582 288 240 288Z" fill="#FFDFBE" fill-opacity="0.23"/>
<path d="M240 376H376C380.418 376 384 372.418 384 368C384 363.582 380.418 360 376 360H240C235.582 360 232 363.582 232 368C232 372.418 235.582 376 240 376Z" fill="#FFDFBE" fill-opacity="0.23"/>
</svg>
